<?xml version="1.0" encoding="UTF-8" standalone="no"?>
<svg
   id="Calque_1"
   data-name="Calque 1"
   viewBox="0 0 299.99999 299.99999"
   version="1.1"
   sodipodi:docname="logo.svg"
   width="300"
   height="300"
   xmlns:inkscape="http://www.inkscape.org/namespaces/inkscape"
   xmlns:sodipodi="http://sodipodi.sourceforge.net/DTD/sodipodi-0.dtd"
   xmlns="http://www.w3.org/2000/svg"
   xmlns:svg="http://www.w3.org/2000/svg">
  <sodipodi:namedview
     id="namedview5"
     pagecolor="#ffffff"
     bordercolor="#000000"
     borderopacity="0.25"
     inkscape:showpageshadow="2"
     inkscape:pageopacity="0.0"
     inkscape:pagecheckerboard="0"
     inkscape:deskcolor="#d1d1d1"
     showguides="true">
    <sodipodi:guide
       position="687.75073,1021.7416"
       orientation="0,-1"
       id="guide5"
       inkscape:locked="false" />
    <inkscape:page
       x="0"
       y="0"
       width="300"
       height="300"
       id="page2"
       margin="0"
       bleed="0" />
  </sodipodi:namedview>
  <defs
     id="defs1">
    <style
       id="style1">.cls-1{fill:#354f2d;}.cls-2{fill:#a7cc72;}.cls-3{fill:#344f26;}</style>
  </defs>
  <path
     class="cls-1"
     d="m 118.18047,99.800719 c 0,0 -8.64496,12.391121 -10.01375,15.540761 -1.36878,3.14965 -1.92494,11.99056 -17.88354,15.27278 0,0 -4.32249,1.19876 -6.797834,1.90476 -2.475327,0.70601 -12.391104,11.43441 -14.327581,21.19745 0,0 -2.066138,2.94794 -1.547443,-1.19012 0.518696,-4.13806 4.535724,-14.23249 12.85506,-20.0419 0,0 -1.316911,-13.8867 7.970652,-21.34154 9.287566,-7.45484 19.851716,-10.33937 26.332556,-10.90418 z"
     id="path1"
     style="stroke-width:0.288165" />
  <path
     class="cls-1"
     d="m 140.49601,76.828162 c 0,0 18.20629,12.679287 18.98146,13.255627 0.77515,0.57632 14.40827,-3.849901 10.95028,9.81779 0,0 7.72284,8.342391 21.10812,7.760291 13.38528,-0.58209 8.31069,-2.15835 15.73671,0.75212 7.42603,2.91046 19.56932,14.92121 25.3067,32.47624 0,0 2.33125,3.76921 2.50127,-0.77229 0.17002,-4.54148 -8.67954,-25.15108 -26.8916,-34.00351 0,0 -2.79232,-15.560941 -9.22129,-21.347298 -6.42897,-5.786362 -11.39695,-10.373958 -28.96352,-11.915643 0,0 -5.99672,-0.671426 -25.56603,3.002683 z"
     id="path2"
     style="stroke-width:0.288165" />
  <path
     class="cls-1"
     d="m 127.88588,261.42119 c -4.93915,0.45531 -18.94975,-7.70554 -18.94975,-7.70554 C 99.59668,253.30069 88.320774,253.4707 74.094039,239.63877 59.867312,225.80682 58.069165,195.41978 57.804047,185.60486 a 6.6278054,6.6278054 0 0 0 1.345738,0.8645 c 0.63684,0.28816 10.970454,7.78047 10.970454,7.78047 5.564484,3.91905 11.330674,7.93607 16.713595,11.50932 5.331066,3.54156 10.238516,7.86404 14.808826,14.80595 4.57031,6.9419 3.74615,26.51122 3.74615,26.51122 2.74622,6.5817 18.73075,11.52662 21.48561,11.97616 2.75487,0.44953 1.01146,2.36871 1.01146,2.36871 z"
     id="path3"
     style="stroke-width:0.288165" />
  <path
     class="cls-2"
     d="m 198.7717,142.6221 c 0.34581,20.23498 12.52655,26.54005 14.73391,40.055 3.84124,23.5143 -22.97544,66.09363 -66.09363,66.09363 -36.50193,-0.002 -66.093626,-29.5946 -66.093626,-66.09651 0,-27.44776 21.900576,-52.92158 43.694526,-62.20052 13.6648,-5.81806 23.2002,-3.52426 30.57435,-13.0366 9.89272,-12.762851 -1.11232,-24.825449 8.59021,-39.905148 8.96771,-13.935679 22.72185,-10.408531 30.48503,-25.77352 5.87569,-11.633237 2.1353,-21.863107 4.98813,-22.445203 4.00263,-0.818387 16.81735,18.235112 11.91853,34.084211 -4.85847,15.713655 -23.15986,15.43125 -24.94072,28.528371 -1.59931,11.771568 12.67928,15.362108 15.24107,34.363729 1.55033,11.58138 -3.31678,13.44293 -3.09778,26.33256 z"
     id="path4"
     style="stroke-width:0.288165" />
  <ellipse
     class="cls-3"
     cx="-169.01831"
     cy="146.61546"
     rx="19.834196"
     ry="8.4210787"
     transform="rotate(-85.426079)"
     id="ellipse4"
     style="stroke-width:0.289085" />
  <ellipse
     class="cls-3"
     cx="-169.35545"
     cy="121.36633"
     rx="19.77103"
     ry="8.3942595"
     transform="rotate(-85.54)"
     id="ellipse5"
     style="stroke-width:0.288165" />
  <path
     class="cls-1"
     d="m 200.47764,216.19939 c -0.57633,3.81243 2.97963,8.10321 -5.51548,13.55819 0,0 -8.41444,3.64529 -11.59289,9.6276 -3.17848,5.98232 -6.07741,10.75145 -6.91598,17.00176 0,0 0.93365,1.77798 1.87019,-0.74634 0.93654,-2.52433 5.6077,-18.04492 12.80607,-21.4107 0,0 4.30232,-2.99115 6.26472,-3.08625 1.96241,-0.095 9.06857,2.33702 14.49184,-1.21605 5.42328,-3.55308 14.86646,-10.0858 18.32444,-20.47416 3.45799,-10.38837 4.03432,-15.14598 2.43212,-26.36426 -1.6022,-11.21828 -4.2101,-17.07957 -4.2101,-17.07957 0,0 -12.93863,12.20093 -18.14001,19.53762 -5.10342,7.20414 -8.78617,15.24107 -9.25299,25.4306 z"
     id="path5"
     style="stroke-width:0.288165" />
</svg>
